<?xml version="1.0" encoding="UTF-8"?><svg id="Camada_2" xmlns="http://www.w3.org/2000/svg" viewBox="0 0 997.56 148.67"><defs><style>.cls-1{fill:#f05065;}.cls-2{fill:#fff;}</style></defs><g id="Layer_1"><path class="cls-1" d="m76.75,43.36c-2.42-3.05-5.68-5.3-9.81-6.76-4.13-1.46-8.03-2.19-11.71-2.19-2.16,0-4.38.25-6.67.76-2.28.51-4.45,1.3-6.48,2.38-2.03,1.08-3.68,2.51-4.95,4.28-1.27,1.78-1.91,3.94-1.91,6.48,0,4.07,1.53,7.17,4.58,9.33s6.89,4,11.52,5.52c4.63,1.52,9.61,3.05,14.95,4.57,5.33,1.52,10.31,3.69,14.94,6.48,4.64,2.8,8.47,6.54,11.52,11.24,3.05,4.7,4.58,10.98,4.58,18.85s-1.4,14.03-4.2,19.61c-2.79,5.59-6.57,10.22-11.32,13.9-4.77,3.68-10.28,6.41-16.57,8.19-6.29,1.78-12.92,2.67-19.9,2.67-8.76,0-16.88-1.33-24.37-4-7.49-2.67-14.47-6.98-20.95-12.95l21.14-23.23c3.05,4.07,6.89,7.21,11.52,9.43,4.64,2.22,9.42,3.33,14.38,3.33,2.41,0,4.86-.29,7.33-.86,2.47-.57,4.69-1.43,6.66-2.57s3.56-2.6,4.77-4.38c1.2-1.77,1.81-3.87,1.81-6.28,0-4.06-1.56-7.27-4.67-9.62-3.11-2.35-7.01-4.35-11.71-6-4.7-1.65-9.77-3.3-15.23-4.95-5.46-1.65-10.54-3.87-15.24-6.67-4.7-2.79-8.6-6.48-11.71-11.05-3.11-4.57-4.67-10.6-4.67-18.09s1.43-13.59,4.29-19.05c2.86-5.46,6.67-10.02,11.42-13.71,4.77-3.68,10.25-6.44,16.48-8.28,6.22-1.84,12.63-2.76,19.23-2.76,7.62,0,14.98,1.08,22.09,3.24,7.11,2.16,13.52,5.78,19.24,10.85l-20.38,22.28Z"/><path class="cls-1" d="m105.34,52.46h27.42v12.57h.38c.89-1.77,2.16-3.55,3.81-5.33,1.65-1.78,3.62-3.36,5.91-4.76,2.29-1.39,4.89-2.54,7.81-3.43,2.92-.89,6.1-1.33,9.52-1.33,6.48,0,12.22,1.33,17.24,4,5.01,2.66,8.79,6.86,11.32,12.57,3.31-5.97,7.3-10.22,12-12.76,4.7-2.54,10.47-3.81,17.33-3.81,6.22,0,11.45,1.05,15.71,3.14,4.26,2.09,7.62,4.95,10.09,8.57,2.48,3.62,4.26,7.87,5.34,12.76,1.07,4.89,1.62,10.12,1.62,15.71v54.65h-28.57v-53.89c0-4.31-.92-8.03-2.76-11.14-1.84-3.11-5.11-4.67-9.8-4.67-3.31,0-6.06.54-8.28,1.62-2.23,1.08-4,2.57-5.34,4.48-1.33,1.9-2.29,4.13-2.86,6.67s-.85,5.21-.85,8v48.94h-28.57v-48.94c0-1.65-.06-3.68-.19-6.09-.13-2.41-.57-4.7-1.33-6.86-.77-2.16-2-4-3.72-5.53-1.71-1.52-4.22-2.28-7.52-2.28-3.68,0-6.67.67-8.95,2-2.29,1.33-4.04,3.11-5.24,5.33-1.21,2.22-2,4.73-2.38,7.52-.39,2.79-.58,5.71-.58,8.76v46.08h-28.56V52.46Z"/><path class="cls-1" d="m321.66,133.39h-.38c-3.18,4.95-7.39,8.51-12.66,10.66-5.27,2.16-10.83,3.24-16.67,3.24-4.32,0-8.47-.6-12.47-1.81-4-1.2-7.52-3.01-10.56-5.43-3.05-2.41-5.46-5.39-7.24-8.95-1.78-3.55-2.66-7.68-2.66-12.38,0-5.34.98-9.84,2.95-13.52,1.97-3.68,4.64-6.73,8-9.14,3.37-2.41,7.2-4.28,11.52-5.62,4.32-1.33,8.79-2.31,13.43-2.95,4.63-.63,9.26-1.01,13.9-1.14,4.63-.13,8.91-.19,12.85-.19,0-5.07-1.81-9.1-5.43-12.09-3.62-2.98-7.9-4.47-12.85-4.47s-8.98.98-12.86,2.95c-3.87,1.97-7.33,4.67-10.37,8.09l-15.24-15.61c5.34-4.95,11.55-8.66,18.67-11.14,7.11-2.47,14.47-3.71,22.09-3.71,8.38,0,15.27,1.05,20.66,3.14,5.4,2.09,9.71,5.18,12.95,9.24,3.24,4.06,5.49,9.04,6.76,14.95,1.27,5.91,1.91,12.73,1.91,20.47v47.04h-26.28v-11.62Zm-7.05-28.94c-2.16,0-4.86.1-8.09.29-3.24.19-6.35.73-9.33,1.62-2.98.89-5.52,2.22-7.62,4-2.1,1.78-3.14,4.25-3.14,7.43,0,3.43,1.46,5.97,4.38,7.62,2.92,1.65,5.97,2.48,9.14,2.48,2.79,0,5.49-.38,8.09-1.14,2.6-.76,4.92-1.84,6.95-3.24,2.03-1.39,3.65-3.17,4.86-5.33,1.21-2.15,1.81-4.69,1.81-7.62v-6.1h-7.05Z"/><path class="cls-1" d="m393.36,59.21c28.65-9.29,57.21-7.43,57.21-7.43,24.01,0,19.89,22.9,4.68,22.9-42.18,0-58.97,8.07-62.62,31.66-1.48,9.55,0,38.66,0,38.66h-28.56V52.46l28.56-.41"/><path class="cls-1" d="m420.5,24.36h28.56v27.42h20.61c2.5,0,4.52,2.03,4.52,4.52v18.33h-25.13v30.85c0,2.54.13,4.86.38,6.95.25,2.09.83,3.91,1.72,5.43.88,1.52,2.25,2.7,4.09,3.53s4.29,1.24,7.33,1.24c1.53,0,3.53-.16,6-.48,2.48-.32,4.35-1.05,5.62-2.19v23.8c-3.17,1.14-6.47,1.9-9.9,2.28s-6.79.57-10.09.57c-4.83,0-9.27-.51-13.33-1.52-4.07-1.01-7.62-2.63-10.66-4.85-3.05-2.22-5.43-5.11-7.14-8.66-1.72-3.55-2.57-7.87-2.57-12.95l.85-48.13"/><path class="cls-2" d="m486.65,2.02h28.56v143.96h-28.56V2.02Z"/><path class="cls-2" d="m686.29,132.35h-.38c-3.18,4.95-7.39,8.51-12.66,10.66-5.27,2.16-10.83,3.24-16.67,3.24-4.32,0-8.47-.6-12.47-1.81s-7.52-3.01-10.56-5.43c-3.05-2.41-5.46-5.39-7.24-8.95-1.78-3.55-2.66-7.68-2.66-12.38,0-5.34.98-9.84,2.95-13.52,1.97-3.68,4.64-6.73,8-9.14,3.37-2.41,7.2-4.28,11.52-5.62,4.32-1.33,8.79-2.31,13.43-2.95,4.63-.63,9.26-1.01,13.9-1.14,4.63-.13,8.91-.19,12.85-.19,0-5.07-1.81-9.1-5.43-12.09-3.62-2.98-7.9-4.47-12.85-4.47s-8.98.98-12.86,2.95c-3.87,1.97-7.33,4.67-10.37,8.09l-15.24-15.61c5.34-4.95,11.55-8.66,18.67-11.14,7.11-2.47,14.47-3.71,22.09-3.71,8.38,0,15.27,1.05,20.66,3.14,5.4,2.09,9.71,5.18,12.95,9.24,3.24,4.06,5.49,9.04,6.76,14.95,1.27,5.91,1.91,12.73,1.91,20.47v47.04h-26.28v-11.62Zm-7.05-28.94c-2.16,0-4.86.1-8.09.29-3.24.19-6.35.73-9.33,1.62-2.98.89-5.52,2.22-7.62,4-2.1,1.78-3.14,4.25-3.14,7.43,0,3.43,1.46,5.97,4.38,7.62,2.92,1.65,5.97,2.48,9.14,2.48,2.79,0,5.49-.38,8.09-1.14,2.6-.76,4.92-1.84,6.95-3.24,2.03-1.39,3.65-3.17,4.86-5.33,1.21-2.15,1.81-4.69,1.81-7.62v-6.1h-7.05Z"/><path class="cls-2" d="m820.15,143.96h-26.27v-12.19h-.38c-1.15,1.65-2.64,3.33-4.48,5.05-1.84,1.71-4,3.27-6.48,4.67-2.48,1.4-5.21,2.53-8.19,3.43-2.99.89-6.06,1.33-9.24,1.33-6.86,0-13.07-1.17-18.66-3.52-5.59-2.35-10.38-5.65-14.38-9.9-4-4.25-7.08-9.29-9.23-15.14-2.16-5.84-3.24-12.25-3.24-19.24,0-6.48.98-12.66,2.95-18.57,1.97-5.9,4.77-11.14,8.38-15.71s8.03-8.22,13.23-10.95c5.21-2.73,11.11-4.1,17.71-4.1,5.97,0,11.52.92,16.67,2.76,5.14,1.84,9.36,4.98,12.66,9.42h.38V0h28.56v143.96Zm-26.27-46.27c0-6.98-2-12.63-6-16.95-4.01-4.31-9.62-6.48-16.86-6.48s-12.85,2.16-16.85,6.48c-4.01,4.32-6,9.97-6,16.95s2,12.63,6,16.95c4,4.32,9.61,6.48,16.85,6.48s12.85-2.16,16.86-6.48c4-4.32,6-9.96,6-16.95Z"/><path class="cls-2" d="m918.16,127.97c-4.58,5.84-10.35,10.35-17.33,13.52-6.98,3.17-14.22,4.76-21.71,4.76-7.11,0-13.8-1.14-20.09-3.43-6.29-2.28-11.74-5.55-16.38-9.8-4.64-4.25-8.28-9.36-10.95-15.33-2.66-5.97-4-12.63-4-20s1.34-14.03,4-20c2.67-5.97,6.32-11.07,10.95-15.33,4.64-4.25,10.09-7.52,16.38-9.81,6.29-2.28,12.98-3.43,20.09-3.43,6.6,0,12.6,1.14,18,3.43,5.4,2.29,9.96,5.56,13.71,9.81,3.75,4.26,6.63,9.36,8.66,15.33,2.03,5.97,3.05,12.64,3.05,20v8.95h-66.27c1.14,5.46,3.62,9.81,7.43,13.05,3.81,3.24,8.5,4.86,14.09,4.86,4.7,0,8.66-1.05,11.9-3.14,3.24-2.09,6.06-4.79,8.47-8.09l20,14.66Zm-24.18-40.75c.12-4.83-1.47-8.95-4.77-12.38-3.3-3.43-7.55-5.14-12.76-5.14-3.17,0-5.97.51-8.38,1.52-2.42,1.02-4.48,2.32-6.19,3.91-1.72,1.59-3.05,3.43-4.01,5.52-.95,2.09-1.49,4.28-1.61,6.57h37.7Z"/><path class="cls-2" d="m932.43,51.42h28.56v14.85h.38c3.05-5.71,6.67-10,10.86-12.85,4.19-2.86,9.45-4.29,15.8-4.29,1.65,0,3.3.07,4.96.19,1.65.13,3.17.38,4.57.76v26.09c-2.03-.63-4.03-1.11-6-1.43-1.97-.32-4.04-.48-6.19-.48-5.46,0-9.78.76-12.95,2.28-3.18,1.52-5.62,3.65-7.33,6.38-1.71,2.73-2.83,6-3.33,9.81-.51,3.81-.77,8-.77,12.57v38.66h-28.56V51.42Z"/><path class="cls-2" d="m614.97,129.38c-4.47,5.84-10.11,10.35-16.93,13.52-6.82,3.17-13.89,4.76-21.22,4.76-6.94,0-13.49-1.14-19.63-3.43-6.14-2.28-11.47-5.55-16-9.8-4.53-4.25-8.09-9.36-10.7-15.33-2.6-5.97-3.91-12.63-3.91-20s1.31-14.03,3.91-20c2.61-5.97,6.17-11.07,10.7-15.33,4.53-4.25,9.86-7.52,16-9.81,6.14-2.28,12.68-3.43,19.63-3.43,6.45,0,12.31,1.14,17.59,3.43,5.27,2.29,9.74,5.56,13.4,9.81,3.66,4.26,6.48,9.36,8.47,15.33,1.98,5.97,2.98,12.64,2.98,20v8.95h-64.75c1.11,5.46,3.53,9.81,7.26,13.05,3.72,3.24,8.31,4.86,13.77,4.86,4.59,0,8.47-1.05,11.63-3.14s5.92-4.79,8.28-8.09l19.54,14.66Zm-23.63-40.75c.12-4.83-1.43-8.95-4.66-12.38-3.22-3.43-7.38-5.14-12.47-5.14-3.1,0-5.83.51-8.18,1.52-2.36,1.02-4.37,2.32-6.05,3.91-1.68,1.59-2.98,3.43-3.91,5.52-.93,2.09-1.46,4.28-1.57,6.57h36.84Z"/></g></svg>